<svg xmlns="http://www.w3.org/2000/svg" viewBox="23.155 64.9772 154.7 71.05">
  <path d="M 106.407 122.988 H 94.593 c -7.405 0 -13.429 -5.665 -13.429 -12.639 v -19.84 C 81.164 83.542 87.188 77.87 94.593 77.87 H 106.407 C 113.813 77.87 119.836 83.541 119.836 90.509 V 110.349 C 119.836 117.323 113.813 122.988 106.407 122.988 z M 163.906 65.118 c -5.642 0.906 -27.858 7.792 -40.872 14.993 c 2.039 2.996 3.248 6.559 3.248 10.398 V 97.206 H 132.727 A 3.22 3.22 0 0 1 135.95 100.429 a 3.22 3.22 0 0 1 -3.223 3.223 h -6.445 v 6.697 c 0 3.877 -1.227 7.484 -3.305 10.499 c 13.004 7.219 35.277 14.124 40.929 15.031 c 0.605 0.101 1.203 0.144 1.791 0.144 c 3.267 0 6.357 -1.403 8.702 -3.959 c 2.19 -2.392 3.446 -5.539 3.446 -8.642 V 77.568 c 0 -7.314 -6.691 -13.621 -13.939 -12.45 z M 74.718 110.349 v -6.697 h -6.445 a 3.221 3.221 0 0 1 -3.223 -3.223 a 3.221 3.221 0 0 1 3.223 -3.223 h 6.445 v -6.697 c 0 -3.84 1.209 -7.402 3.248 -10.398 c -13.013 -7.2 -35.229 -14.086 -40.872 -14.993 c -7.235 -1.171 -13.936 5.136 -13.939 12.45 v 45.854 c 0 6.716 5.678 12.601 12.148 12.601 c 0.588 0 1.187 -0.044 1.791 -0.144 c 5.656 -0.906 27.925 -7.811 40.929 -15.031 c -2.077 -3.015 -3.305 -6.622 -3.305 -10.499 z" stroke="#1a1a1a" stroke-width="1" fill="#2b6ca3"/>
</svg>